<?xml version="1.0" encoding="utf-8"?>
<!-- Generator: Adobe Illustrator 21.1.0, SVG Export Plug-In . SVG Version: 6.00 Build 0)  -->
<svg version="1.1" id="Layer_3" xmlns="http://www.w3.org/2000/svg" xmlns:xlink="http://www.w3.org/1999/xlink" x="0px" y="0px"
	 viewBox="0 0 113.4 113.4" style="enable-background:new 0 0 113.4 113.4;" xml:space="preserve">
<style type="text/css">
	.st0{fill:#FFFFFF;}
</style>
<rect x="25.8" y="75.3" class="st0" width="12.4" height="12.4"/>
<rect x="42.3" y="75.3" class="st0" width="12.4" height="12.4"/>
<rect x="42.3" y="38.1" class="st0" width="12.4" height="12.4"/>
<rect x="58.8" y="75.3" class="st0" width="12.4" height="12.4"/>
<rect x="25.8" y="56.7" class="st0" width="12.4" height="12.4"/>
<rect x="42.3" y="56.7" class="st0" width="12.4" height="12.4"/>
<path class="st0" d="M13.7,19.3v4.1v76.3h4.1h82.5v-4.1V23.4v-4.1h-4.1H81.8v-6.2H71.5v6.2H42.6v-6.2H32.3v6.2H17.9H13.7z
	 M19.9,25.5h12.4v4.1h10.3v-4.1h28.9v4.1h10.3v-4.1h12.4v68H19.9V25.5z"/>
<rect x="75.3" y="38.1" class="st0" width="12.4" height="12.4"/>
<rect x="75.3" y="56.7" class="st0" width="12.4" height="12.4"/>
<rect x="58.8" y="56.7" class="st0" width="12.4" height="12.4"/>
<rect x="58.8" y="38.1" class="st0" width="12.4" height="12.4"/>
</svg>
