<?xml version="1.0" encoding="utf-8"?>
<!-- Generator: Adobe Illustrator 21.0.2, SVG Export Plug-In . SVG Version: 6.00 Build 0)  -->
<svg version="1.1" xmlns="http://www.w3.org/2000/svg" xmlns:xlink="http://www.w3.org/1999/xlink" x="0px" y="0px"
	 viewBox="0 0 113.4 113.4" style="enable-background:new 0 0 113.4 113.4;" xml:space="preserve">
<style type="text/css">
	.st0{display:none;}
	.st1{display:inline;fill:#FFFFFF;}
	.st2{fill:#FFFFFF;}
	.st3{display:inline;}
	.st4{fill:#262729;}
	.st5{display:inline;fill:#262729;}
	.st6{fill:#844341;}
	.st7{fill:#005F13;}
	.st8{fill:#4E4E4E;}
	.st9{fill:#444547;}
	.st10{display:inline;fill:#4E4E4E;}
</style>
<g id="Background" class="st0">
</g>
<g id="Image" class="st0">
	<polygon class="st1" points="58.5,73.9 36.4,54.2 16.8,69 16.8,95.9 97.7,95.9 97.7,81.2 75.6,64.1 	"/>
	<path class="st1" d="M3.3,2.7v107.9h107.9V2.7L3.3,2.7L3.3,2.7z M10.6,10.1h93.2v93.2H10.6V10.1z"/>
</g>
<g id="List" class="st0">
	<path class="st1" d="M14.3,109.2H99V3.3H14.3V109.2z M26.1,19.8h61.2v7.1H26.1V19.8z M26.1,36.2h61.2v7.1H26.1V36.2z M26.1,52.7
		h61.2v7.1H26.1V52.7z M26.1,69.2h61.2v7.1H26.1V69.2z M26.1,85.6h61.2v7.1H26.1V85.6z"/>
</g>
<g id="Camera" class="st0">
	<polygon class="st1" points="5.8,18.1 5.8,27.3 22.9,20.8 22.9,18.1 	"/>
	<circle class="st1" cx="56.7" cy="60.2" r="20.2"/>
	<path class="st1" d="M109.7,22.9H73.6v-7.2H39.8v7.2h-8.7L3.6,33.3v64.4h106.1V22.9z M56.7,88.5c-15.5,0-28.1-12.6-28.1-28.1
		c0-15.5,12.6-28.1,28.1-28.1s28.1,12.6,28.1,28.1C84.8,75.9,72.2,88.5,56.7,88.5z"/>
</g>
<g id="Edit">
	<path class="st2" d="M99.6,13.2c-5.9-5.9-13.1-8.3-16.1-5.4L72.8,18.6c3-3,10.2-0.6,16.1,5.4c5.9,5.9,8.3,13.1,5.4,16.1L105,29.3
		C108,26.3,105.6,19.1,99.6,13.2z"/>
	<path class="st2" d="M90.3,44c3-3,0.6-10.2-5.4-16.1C79,22,71.8,19.6,68.8,22.6l-4,4c3-3,10.2-0.6,16.1,5.4
		c5.9,5.9,8.3,13.1,5.4,16.1L90.3,44z"/>
	<path class="st2" d="M60.8,30.6l-4,4c3-3,10.2-0.6,16.1,5.4c5.9,5.9,8.3,13.1,5.4,16.1l4-4c3-3,0.6-10.2-5.4-16.1
		C70.9,30.1,63.7,27.7,60.8,30.6z"/>
	<path class="st2" d="M52.7,38.7L30.4,61l-4.5,4.5c3,3,7.2,3.7,10.5,2.1c0.2,2.1,1.2,4.2,2.9,5.9c1.7,1.7,3.8,2.6,5.9,2.9
		c-1.5,3.3-0.8,7.5,2.1,10.5l4.5-4.5l22.3-22.3c3-3,0.6-10.2-5.4-16.1C62.9,38.1,55.7,35.7,52.7,38.7z"/>
	<path class="st2" d="M43.3,91c-3-3-3.7-7.2-2.1-10.5c-2.1-0.2-4.2-1.2-5.9-2.9c-1.7-1.7-2.6-3.8-2.9-5.9c-3.3,1.5-7.5,0.8-10.5-2.1
		L7.1,105.7L43.3,91z"/>
</g>
<g id="Users" class="st0">
	<g class="st3">
		<circle class="st4" cx="56.1" cy="30.8" r="25.4"/>
		<circle class="st4" cx="26.1" cy="82.6" r="25.4"/>
		<circle class="st4" cx="87.3" cy="82.6" r="25.4"/>
	</g>
</g>
<g id="Borrowing_App_logo" class="st0">
	<path class="st3" d="M106.7,47.3c0-0.4-0.4-0.7-0.8-0.7H74.1v1.6h31.1c0,1.1-0.3,3.5-1.6,4.9c-0.7,0.7-1.5,1-2.6,1h-4H74.1v1.6
		h22.2c0,1.1-0.3,3.5-1.6,4.9c-0.7,0.7-1.5,1-2.6,1h-5.9H74.1v1.6h11.3c0,1.1-0.3,3.5-1.6,4.9c-0.7,0.7-1.5,1-2.6,1h-7.2v1.6h7.2
		c1.5,0,2.8-0.5,3.7-1.5c1.7-1.8,2-4.6,2-6h5.1c1.5,0,2.8-0.5,3.7-1.5c1.7-1.8,2-4.6,2-6h3.2c1.5,0,2.8-0.5,3.7-1.5
		C106.9,51.8,106.7,47.5,106.7,47.3z"/>
	<path class="st3" d="M6.7,47.3c0,0.2-0.2,4.4,2,6.8c1,1,2.2,1.5,3.7,1.5h3.2c0,1.4,0.4,4.2,2,6c1,1,2.2,1.5,3.7,1.5h5.1
		c0,1.4,0.4,4.2,2,6c1,1,2.2,1.5,3.7,1.5h7.5v-1.6h-7.5c-1.1,0-1.9-0.3-2.6-1c-1.3-1.4-1.5-3.7-1.6-4.9h11.7v-1.6H27.3h-5.9
		c-1.1,0-1.9-0.3-2.6-1c-1.3-1.4-1.5-3.7-1.6-4.9h22.5v-1.6H16.4h-4c-1.1,0-1.9-0.3-2.6-1c-1.3-1.4-1.5-3.7-1.6-4.9h31.4v-1.6H7.5
		C7.1,46.6,6.8,46.9,6.7,47.3z"/>
	<path class="st3" d="M60.1,54.7c1.3-0.6,2-1.7,2.1-3.5c0-0.1,0-0.2,0-0.4c0-1.9-0.6-3.2-1.9-3.8c-1.1-0.6-2.9-0.9-5.4-0.9h-4.6v9.3
		h4.6C57.2,55.5,58.9,55.2,60.1,54.7z M51.6,54.1v-6.5h3.2c2.3,0,3.9,0.2,4.8,0.7c0.8,0.4,1.1,1.2,1.1,2.6c0,1.3-0.4,2.2-1.2,2.5
		c-1,0.4-2.6,0.7-4.8,0.7H51.6z"/>
	<path class="st3" d="M70.5,60.1c-1.1-1.2-2.4-2.1-4-2.8c0.3-0.2,0.6-0.4,1.1-0.8c2-1.5,3.1-3.9,3.1-6.9c0-2.5-0.9-4.8-2.6-6.8
		c-1-1.1-2.5-2-4.4-2.6c-1.9-0.6-4.1-0.9-6.6-0.9H42.1v37.9h16.7c5.2,0,8.9-1.2,11.1-3.6c1.9-2.1,2.8-4.5,2.8-7.2
		C72.7,63.9,71.9,61.8,70.5,60.1L70.5,60.1z M71.2,67.7c0,0.1,0,0.1,0,0.2c0,0.1,0,0.3-0.1,0.4c0,0.1,0,0.1,0,0.2
		c-0.4,1.5-1.1,2.9-2.2,4.1c-1.2,1.3-2.9,2.2-5.2,2.7c-0.1,0-0.2,0-0.4,0.1c-0.2,0-0.5,0.1-0.7,0.1c-1.1,0.2-2.4,0.3-3.7,0.3H43.5
		V40.7H57c2.4,0,4.5,0.3,6.2,0.9c1.7,0.6,2.9,1.3,3.7,2.2c1.5,1.7,2.3,3.7,2.3,5.9c0,2.6-0.8,4.6-2.5,5.8c-0.1,0.1-0.3,0.2-0.4,0.3
		c-0.1,0.1-0.2,0.1-0.2,0.2c-0.3,0.2-0.5,0.3-0.6,0.4c-0.2,0.1-0.7,0.3-1.3,0.6l-2,0.9l2.1,0.5c2.1,0.5,3.8,1.4,5,2.8
		c1.2,1.4,1.8,3.2,1.8,5.3c0,0.3,0,0.6,0,0.9C71.2,67.4,71.2,67.5,71.2,67.7z"/>
	<path class="st3" d="M62,61.4c-1.2-0.5-3-0.8-5.4-0.9c-0.3,0-0.5,0-0.8,0h-5.5v9.8h6.3c2.5,0,4.3-0.3,5.6-0.9
		c1.2-0.6,2-1.7,2.1-3.3c0-0.2,0-0.5,0-0.7C64.2,63.4,63.5,62,62,61.4z M62.8,65.4c0,1.4-0.4,2.3-1.4,2.8c-1.1,0.5-2.7,0.8-4.9,0.8
		h-4.9v-7h4.1c2.6,0,4.5,0.3,5.7,0.8C62.4,63.1,62.8,64,62.8,65.4z"/>
</g>
<g id="Items" class="st0">
	<rect x="62.9" y="61.7" class="st5" width="42.7" height="42.7"/>
	<rect x="7.9" y="61.7" class="st5" width="42.7" height="42.7"/>
	<rect x="34.3" y="9.7" class="st5" width="42.7" height="42.7"/>
</g>
<g id="Entities" class="st0">
	<g id="B1pumu.tif_2_" class="st3">
		<g>
			<path class="st4" d="M57,8c8.8,15.2,17.4,30.1,26.2,45.3c-17.7,0-35.1,0-52.8,0C39.3,38.2,48.1,23.2,57,8z"/>
			<path class="st4" d="M58.5,104.6c8.9-15.1,17.6-30,26.6-45.2c8.8,15.2,17.4,30.1,26.2,45.2C93.6,104.6,76.2,104.6,58.5,104.6z"/>
			<path class="st4" d="M2.1,104.7c8.9-15.1,17.7-30,26.6-45.3c8.8,15.2,17.4,30.1,26.2,45.3C37.3,104.7,19.9,104.7,2.1,104.7z"/>
		</g>
	</g>
</g>
<g id="Check_out" class="st0">
	<g class="st3">
		<path class="st6" d="M40.1,107.2L7,74.1L41.9,39L10.2,6.8h94.5v95.6L74.8,72.6L40.1,107.2z M16,74.1l24,24l34.7-34.6l23.5,23.4
			V13.2H25.6L50.9,39L16,74.1z"/>
	</g>
</g>
<g id="Check_in" class="st0">
	<g class="st3">
		<path class="st7" d="M71.6,6.8l33.1,33L69.7,75l31.7,32.2H7V11.5l29.9,29.9L71.6,6.8z M95.6,39.9l-24-24L36.9,50.5L13.4,27v73.7
			h72.7L60.7,75L95.6,39.9z"/>
	</g>
</g>
<g id="Scan_tag" class="st0">
	<g id="L4VGl4.tif" class="st3">
		<g>
			<path class="st8" d="M98.5,56.7C98.4,66,97.1,75.1,94.7,84c-2.1,7.5-5.1,14.6-8.6,21.5c-1.2,2.3-2.7,4.1-5.7,4.1
				c-4.2-0.1-6.6-4.3-4.8-8c2.1-4.3,4.4-8.6,6.1-13.1c4.4-11.4,6.2-23.3,5.7-35.6C87,41.6,84.4,30.9,80,20.5
				c-1.2-2.9-2.8-5.6-4.2-8.4c-1.5-2.9-0.8-6,2-7.7C80,3.1,83.6,3.8,85,6.4c2,3.6,3.9,7.2,5.4,11c1.9,4.7,3.6,9.6,4.8,14.5
				C97.4,40,98.5,48.3,98.5,56.7z"/>
			<path class="st8" d="M75.6,55.5C75.5,70,72.5,82.4,66.2,94c-0.4,0.8-0.8,1.5-1.2,2.3c-1.7,2.8-5.1,3.7-7.8,2
				c-2.9-1.9-3-5.5-1.6-7.9c3.3-5.5,5.6-11.4,7.1-17.7c1.6-6.6,2.2-13.3,1.8-20.1c-0.6-9.7-3.1-18.8-7.7-27.4
				c-0.9-1.7-2.2-3.1-2.1-5.3c0.1-2.6,1.4-4.5,3.8-5.3c2.4-0.7,5,0.1,6.3,2.2c3.1,5.3,5.8,10.9,7.4,16.9c1.2,4.8,2.1,9.7,2.9,14.6
				C75.5,51.1,75.5,54,75.6,55.5z"/>
			<path class="st8" d="M52.7,56.9c0,10.4-2.8,20.1-8.1,29.1c-1.4,2.4-5,3.3-7.5,1.9c-2.4-1.3-3.4-4.4-2.2-7c1.4-3,3-5.9,4.2-8.9
				c3.3-8.8,3.6-17.8,1.2-26.9c-1.1-4-2.7-7.8-4.8-11.4c-1.6-2.9-1.3-5.5,0.8-7.3c2.5-2.1,6.7-1.6,8.4,1.2
				C50,36.5,52.8,46.3,52.7,56.9z"/>
			<path class="st8" d="M31.3,57c0,7-2.2,13.4-6.3,19.2c-1.7,2.4-5.4,3-7.7,1.3c-2.6-1.8-3.1-5.2-1.2-7.8c5.7-7.6,5.7-18.4,0.1-26
				c-2-2.7-1.5-6,1.2-7.9c2.4-1.7,6-1,7.8,1.5C29.1,43.2,31.3,49.6,31.3,57z"/>
		</g>
	</g>
</g>
<g id="encode_x5F_scan" class="st0">
	<g class="st3">
		<g id="tkO5ya.tif">
			<g>
				<path class="st9" d="M83.4,34.2c0,7.9-5.5,14.9-13,16.7c-0.6,0.1-1.4,0.7-1.5-0.4c-0.1-0.9-0.4-1.9,0.9-2.4
					c1.8-0.8,3.7-1.5,5.2-2.7c4.6-3.4,6.6-9.6,5-15c-1.8-5.9-5.8-9.6-12-10.4c-7.3-1-13.5,3-15.9,10.1c-0.4,1.1-1.9,1.7-2.8,1.1
					C49,31,48.9,30.4,49,30c2-8.6,10.9-14.4,19.7-12.9C77.3,18.5,83.4,25.6,83.4,34.2z"/>
				<path class="st9" d="M88.1,34.2c0,10.3-7.5,19.5-17.6,21.5c-0.1,0-0.3,0.1-0.4,0.1c-0.4-0.2-0.8-0.3-1.2-0.5
					c0.3-0.3,0.5-0.8,0.9-0.9c2.8-0.7,5.5-1.7,7.8-3.4c6.7-4.8,9.9-11.4,8.7-19.6c-1.3-8.9-6.8-14.7-15.5-17
					c-11.1-2.9-22.7,4.5-25,15.7c-0.1,0.4-0.7,0.8-1,1.2c-0.2-0.5-0.5-1-0.5-1.4c1.8-8.3,6.9-13.9,14.9-16.6
					c9.4-3.1,19.3,0.3,25,8.4C86.8,25.4,88.1,29.6,88.1,34.2z"/>
				<path class="st9" d="M70.1,58.6c0.6-0.2,1.1-0.4,1.6-0.5c9.7-2.2,17.3-10.1,18.7-20c2-13.3-6.1-24.1-17.3-27.4
					C60,6.8,47,13.6,42.4,26.4c-0.5,1.3-0.7,2.7-1.1,4c-0.1,0.3-0.5,0.5-0.7,0.8c-0.2-0.3-0.5-0.7-0.4-1c0.4-3.7,1.8-7.1,3.8-10.1
					c8.3-12.4,24.8-15.7,37-7c9,6.4,12.7,15.5,10.5,26.3c-2.1,10.5-8.9,17.1-19.2,20C71.5,59.6,70.7,59.6,70.1,58.6z"/>
				<path class="st9" d="M47.4,39.1c-2.6,0-5.2,0-7.7,0c-0.4,0-0.8-0.4-1.2-0.6c0.4-0.3,0.8-0.8,1.2-0.8c5.2-0.1,10.4-0.1,15.6,0
					c0.4,0,0.8,0.5,1.2,0.8c-0.4,0.2-0.8,0.6-1.2,0.6C52.6,39.1,50,39.1,47.4,39.1z"/>
				<path class="st9" d="M63.8,40.6c-0.5,0.3-1,0.7-1.5,0.7c-0.6,0-1.2-0.3-1.8-0.6c-0.1-0.1-0.3-0.4-0.2-0.6c0.2-0.5,2.6-1,2.9-0.6
					C63.4,39.7,63.5,40,63.8,40.6z"/>
			</g>
		</g>
		<path class="st9" d="M77.9,72.6c0.7-2.3,0.6-4.5-1.3-6.3c-2.4-2.3-4.9-4.5-7.4-6.6c-0.9-0.7-1.3-1.4-1.2-2.5c0.1-4.7,0-9.4,0-14.1
			c0-5.7-4.3-10-10-10c-6.7,0-13.4,0-20.1,0c-6.2,0-10.3,4.1-10.3,10.3c0,9.3,0,18.6,0,28c0,1.5-0.6,2.4-1.8,3.1
			c-1.4,0.7-2.9,1.4-4.3,2.2c-3.1,1.8-4,4.3-2.8,7.6c0.1,0.4,0.3,0.8,0.4,1.2c0.9,2.8,1.8,5.6,2.6,8.5c1,3.3,1.8,6.7,2.8,10
			c0.3,1.1,1,1.9,2.4,2.1c-0.1-0.6-0.2-1.1-0.3-1.6c-2.1-7-4.3-13.9-6.4-20.9c-0.7-2.2-0.3-3.9,1.5-5c2.2-1.3,4.5-2.4,7.1-3.8
			c0,1.5-0.1,2.6,0,3.8c0,0.5,0.3,1.2,0.6,1.3c2.6,0.8,3.9,2.9,5.2,4.9c0.9,1.3,1.4,2.8,0.8,4.3c1.3,0.8,2.5,1.6,3.8,2.1
			c0.9,0.4,2,0.6,2.9,0.4c2.5-0.5,5-1.2,7.5-1.7c2.6-0.5,4.6-1.6,5.9-4.2c0.8-1.6,2.2-3,3.6-4.3c0.7-0.7,1.4-1.2,1.5-2.2
			c0.1-1.1,0.8-1.7,1.8-2.2c1.8-0.8,3.3-2.1,4.2-3.9c0.8-1.8,2.2-2.8,3.8-3.7c0.6-0.4,1.2-0.7,1.8-1.1c-0.1-0.2-0.1-0.3-0.2-0.5
			c-1.2,0.5-2.5,1-3.8,1.5c0-2.8,0-5.5,0-8.3c0.4,0.2,0.7,0.3,0.9,0.5c2.1,1.9,4.2,3.9,6.3,5.8c1.5,1.3,1.5,3,1,4.7
			c-0.7,2.6-1.6,5.2-2.5,7.8c-0.7,2.3-1.9,4.5-2,6.8c-0.2,3-0.6,5.8-2.2,8.3c-0.1,0.2-0.1,0.4-0.2,1c2.9-3,2.9-6.5,3.2-10
			c0.8,1.8,1.5,3.5,2.1,5.3c0.6,1.9,0.7,3.8,0,5.7c-0.8,2-1.7,3.9-2.5,5.8c-0.2,0.4-0.3,0.9-0.5,1.3c0.1,0.1,0.3,0.2,0.4,0.3
			c0.7-0.7,1.5-1.3,2-2.1c0.8-1.4,1.4-2.9,2-4.4c0.9-2.2,0.9-4.4,0.2-6.6C76,90,75.4,88.6,75,87.2c-0.3-1.4-0.8-2.9-0.4-4.1
			C75.5,79.5,76.8,76.1,77.9,72.6z M62.1,75.3c-0.9,1-2.3,1.7-3.2,4.7c-0.5,1.6-2.2,1.9-2.7,2.8c-1.3,1.9-1.8,3.2-3.6,4.2
			c-3.2,1.8-6.8,2.5-11.1,2.9c-1.7,0.2-2.9-0.9-4-1.8c-0.3-3.1-1.9-5.9-4.1-7.5V44.9c0-0.4,0.3-0.7,0.7-0.7h27.4
			c0.4,0,0.7,0.3,0.7,0.7V75.3z M65.7,43.4c-0.2,8.3-0.1,16.5-0.1,24.8c0,1.6-0.3,3.1-1.7,4.2c0-0.5,0-1,0-1.5c0-8.8,0-17.6,0-26.4
			c0-2,0-2-1.9-2c-9.6,0-19.3,0-28.9,0c-1.3,0-1.7,0.3-1.7,1.7c0.1,11.2,0,22.3,0,33.5c0,0.6-0.1,1.1-0.2,1.7
			c-0.2,0.1-0.3,0.1-0.5,0.2c-0.4-0.5-0.8-1-1.1-1.6c-0.2-0.3-0.1-0.8-0.1-1.2c0-11.1,0-22.2,0-33.4c0-5.1,3.1-8.2,8.2-8.2
			c6.6,0,13.1,0.1,19.7,0C62.2,35.1,65.8,38.7,65.7,43.4z"/>
	</g>
</g>
<g id="Search" class="st0">
	<path class="st10" d="M41.5,79.5c8.8,0,16.9-3,23.3-8l8.7,8.7c-1.9,1.9-1.9,5,0,6.9L95,108.6c1.9,1.9,4.9,1.9,6.9,0l6.9-6.9
		c1.9-1.9,1.9-4.9,0-6.9L87.4,73.3c-1.9-1.9-5-1.9-6.9,0l-8.8-8.8c4.8-6.4,7.7-14.3,7.7-22.9c0-20.9-16.9-37.8-37.8-37.8
		S3.7,20.8,3.7,41.7C3.7,62.6,20.7,79.5,41.5,79.5z M41.5,11.8c16.5,0,29.9,13.4,29.9,29.9c0,16.5-13.4,29.9-29.9,29.9
		S11.7,58.2,11.7,41.7C11.7,25.2,25.1,11.8,41.5,11.8z"/>
</g>
<g id="Check" class="st0">
	<g class="st3">
		<path class="st6" d="M72.1,7.4L104.7,40L70.3,74.6l31.2,31.7H8.4V12.1l29.5,29.4L72.1,7.4z"/>
	</g>
</g>
</svg>
