<?xml version="1.0" encoding="utf-8"?>
<!-- Generator: Adobe Illustrator 21.1.0, SVG Export Plug-In . SVG Version: 6.00 Build 0)  -->
<svg version="1.1" id="Layer_2_1_" xmlns="http://www.w3.org/2000/svg" xmlns:xlink="http://www.w3.org/1999/xlink" x="0px" y="0px"
	 viewBox="0 0 518 404" style="enable-background:new 0 0 518 404;" xml:space="preserve">
<style type="text/css">
	.st0{fill:#FFFFFF;}
	.st1{fill:#F9A0C4;}
	.st2{fill:#422744;}
</style>
<g>
	<g>
		<g>
			<path class="st0" d="M238.7,192.3c-5.4,0-80.3-7.2-96.3-14.3c-16-7.1-20.7-29.4-20.7-29.4S83.5,137,76.4,128.1
				c-7.2-8.9-3.6-21.4-3.6-21.4s-16-5.3-26.7-28.5S85.3,44.3,121,42.5c35.6-1.8,101.6,39.2,124.8,53.5s146.3,53.5,153.4,53.5
				c7.2,0,58.9,12.4,76.7,26.7c17.9,14.3,21.4,44.6,3.6,64.2c-17.8,19.6-49.9,16-49.9,16S244.1,192.2,238.7,192.3z"/>
		</g>
		<g>
			<g>
				<g>
					<path class="st1" d="M446.7,280.5c-0.9,15.8,18.4,36.9-9.7,52.7c-12.7,7.2-37.7,12.3-59.7,3.5s-12.3-4.4-29,2.6
						c-16.7,7-37.8,10.5-58,12.3c-20.2,1.8-29.9,0.9-48.3-3.5c-18.5-4.3-37.8,13.2-53.6,14.1c-15.8,0.8-29.9,1.7-37.8-14.1
						c-7.9-15.8,2.3-19.3-8.8-21.1s-19.3-10.6-27.2-25.5s7.1-22,17.6-32.5c10.5-10.6,26.3-14.1,27.2-25.8c0.9-11.8,1.7-27,7-42.8
						c5.2-15.8,18.7-17.1,47.4-12.3c21,3.5,30-11.7,30.7-14.9c0.7-3.1-4.4-26.3-7-36c-2.6-9.6,5.3-14.9,5.3-14.9l16.7-8.8
						c11.5-4.4,0-27.3,1.8-34.3s-0.9-20.2,0.9-28.1s20.2-2.6,36.9,0.9c16.7,3.5,35.1,10.5,36,22.8c0.9,12.3,11.4,1.8,24.6,1.8
						c13.1,0,14.9-14,13.9-19.3s1.9-12.4,4.5-15s37.7,7.1,47.4,14.1c9.7,7.1,15.9,29.9,14.1,38.7c-1.8,8.7,21.1,40.4,24.6,55.3
						c3.5,15-15.8,8.8-23.7,8.8c-8,0-32.6,12.3-38.7,29.9s-5.2,24.6-2.6,37.8c2.6,13.1,30.7,29.8,44.8,31c14,1.2,7.9,9.4,7.9,9.4
						S447.5,264.6,446.7,280.5z"/>
				</g>
			</g>
			<g>
				<g>
					<path class="st0" d="M459.8,146.7c0-1.8-9.9-18.2-15.2-29.3c-5.3-11.1-10-17-8.8-25.2c1.2-8.2-0.6-12.9-8.2-25.8
						C420,53.6,397.8,50,388.4,47.7c-9.4-2.4-10,2.3-10,2.3c45.1,11.1,44.5,43.9,44.5,43.9s-10.5-3-15.8-5.3
						c-5.2-2.3-15.8-5.8-19.3-7c-3.6-1.2-36.4-1.2-38.7-0.6c-2.3,0.6-14.5-3.1-14.5-3.1s-17.6-20.5-22.3-24
						c-4.6-3.5-22.2-5.8-26.9-6.4s-24.6,1.2-24.6,1.2l11.1,14.1c56.2-2.3,53.3,38.7,53.3,38.7l16.4-5.3
						c86.6-11.7,104.2,59.2,104.2,59.2C460.4,166.5,459.8,148.4,459.8,146.7z"/>
				</g>
			</g>
			<g>
				<g>
					<path class="st0" d="M449.8,267.3c3.5-5.9-12.3-5.9-12.3-5.9l-39.2,32.2C404.8,294.8,446.4,273.1,449.8,267.3z"/>
				</g>
			</g>
			<g>
				<g>
					<path class="st0" d="M450.4,320.5c0,5.3-19.4,14.7-25.8,17.6c-6.4,3-31,1.8-39.8,1.2c-8.7-0.6-14.6-13.5-14.6-13.5
						c77.3,7.6,68.5-36.9,68.5-36.9C459.2,282.5,450.5,315.3,450.4,320.5z"/>
				</g>
			</g>
			<g>
				<g>
					<path class="st0" d="M268.9,241.5c5.2-4.7,32.2-6.5,43.3-1.8c11.1,4.7,17,14.1,19.9,29.9s-18.7,22.8-24,24.6
						c-5.2,1.7-27.5-0.6-27.5-0.6s39.3-9.6,29.3-30.7s-53.9-5-53.9-5S263.6,246.2,268.9,241.5z"/>
				</g>
			</g>
		</g>
	</g>
	<g>
		<circle class="st1" cx="442.9" cy="209.2" r="40.2"/>
		<path class="st2" d="M131.5,221.9c-0.5,0.5-1.7,0.7-2.8,0.2c-1.3-0.6-1.9-1.7-2-3.6c-0.1-2.4,0.5-4.5,1.5-6.3
			c0-0.1,2.7,4.3,2.9,4.8c0.1,0.2,0.2,0.5,0.3,0.8C132,219.1,132.5,220.9,131.5,221.9z M159,337c0.3,0,0.6-0.1,0.9-0.1
			c14-1.6,26.1-5.5,33.3-8.3c3.8,4.4,9.8,10.4,18.5,16.1c-30,11.3-46.3,5-51-0.9C159,341.6,158.4,339.2,159,337z M149.2,224.7
			c-0.4,4.3-0.4,9-0.1,14c-5.6,4.1-15.9,11.6-28.1,21.2c-16.2,12.7-22.2,33.2-14.9,50.9c4.6,11.2,15.5,22.3,33.5,25.7
			c-0.6,6.6,1.5,13.4,6.1,19.2c6.6,8.3,18.5,14.4,35.6,14.4c14,0,31.4-4.1,52.2-14.3c14,5.1,29.2,7.6,45.7,7.6
			c26.5,0,56.2-6.5,88.9-19.6c37.7,15.6,74.3,3.7,88.6-17.6c7.7-11.4,10.2-28.7-2.8-45.7c25-18.7,45-42.1,45-69.4
			c0-23.3-11.4-41-26.5-50.9c0.3-17.6-8.3-37.7-23.3-54.2c2.9-8.8,1.9-20.6-3.1-32.4c-10.3-24-33.6-39.7-62.5-41.8
			c-6.3-0.4-13.2-0.1-17.5,5.1c-4.2,5.2-2.6,11.1-1.8,14.3c0.2,0.7,0.4,1.8,0.5,2.4c-2.4,4.9-3.6,10.8-3.1,16.6
			c-6.4,0.1-13.2,0.6-20.3,1.6c-1.2-3-2.7-5.9-4.6-8.7c-7.8-11.7-28-30.4-74.9-24.9c-5.6,0.6-8.4,3.5-9.8,5.8
			c-3.2,5.3-1.1,10.7,0.4,14.6c1.4,3.6,2.4,6.4,1.6,8.7c-0.3,1-0.6,2-0.9,3C248.4,54.5,240,37.5,224.9,27
			c-21.3-14.7-49.2-12.7-73.7,9.9C94.8,26.6,52.6,44.2,39.5,67.6c-7,12.5-5.3,26,4.4,36.2c4.2,4.4,11.4,8.2,20.7,10.9
			c-1.2,9.3,2.7,19.1,11.2,27.4c9.7,9.6,24.5,16.6,42.1,19.5c0.4,1.8,1.1,3.8,2.3,5.8c5.6,9.6,19.4,19.5,38.1,24.6
			c-0.7,1.2-1.3,2.5-1.9,3.9c-5.2-3.3-14.7-4.5-21.4-2.9c-3,0.7-7.4,1.8-9.8,3.3c-9.1-1.4-19.2,2.8-25.1,10.7
			c-5.4,7.2-6.3,15.9-2.6,23.8c1.5,3.3,5.5,4.8,8.8,3.2c3.3-1.5,4.8-5.5,3.2-8.8c-2.1-4.4-0.5-8,1.2-10.2c0.9-1.2,2.1-2.2,3.3-3.1
			c-0.5,2.2-0.8,4.5-0.7,6.9c0.2,7.1,4,12.8,10.1,15.4c2.1,0.9,4.3,1.3,6.5,1.3c6.9,0,13.4-4.8,15.6-11.3c1.3-3.6,1.2-7.6-0.2-11.1
			c-1.2-2.9-3.6-4.9-5.4-7.4c2.3,0.2,9.9,1,12.1,3.8c-0.8,3.3-1.5,6.8-2,10.7L149.2,224.7z M428.8,81c1.5,3.4,2.4,6.6,2.8,9.4
			c-11.9-8.2-28.5-16.2-50.3-19.1c-1.2-2.6-0.8-6.8,0.7-9.8c2-3.9,2-7.7,1.6-10.8C413.9,53.4,425.4,72.8,428.8,81z M453,152.3
			c-3-0.6-6-0.9-9-0.9c-28.9,0-58.7,21.5-58.7,57.5c0,35.1,27.2,56.6,54.8,58.5c-13.3,9.6-27.6,17.5-39,23.2
			c-4.6,2.3-6.5,8-4.2,12.7c1.7,3.3,5,5.2,8.5,5.2c1.4,0,2.8-0.3,4.2-1c9.5-4.7,19.3-10.1,28.9-16.2c5.4,6.6,8.8,15.3,2.7,24.4
			c-10.2,15.1-40.2,22.4-68.8,9.2l-3.8-1.7l-3.8,1.6c-50.3,20.8-94.1,25.1-126.6,12.5c-24-9.3-33.7-24.8-33.8-25l-4.5-7.4l-7.8,3.8
			c-0.1,0.1-15.2,7.4-34.3,9.6c-16.6,1.9-29.2-3.5-33.8-14.6c-4.1-9.8-0.4-21.4,9.1-28.9c17.6-13.9,31.6-23.6,31.7-23.7l4.7-3.2
			l-0.7-5.7c-3.4-27.8,8-44.5,9.6-46.7c2.5,0.2,5.1,0.3,7.7,0.3c9.2,0,19-1.2,29.1-3.8c5.1-1.3,8.1-6.4,6.8-11.5s-6.4-8.1-11.5-6.8
			c-33.3,8.6-58.9-2.6-69.1-10.7c18.8-0.8,39.4-6.1,60.3-17.1c4.6-2.5,6.3-8.2,3.9-12.8c-2.5-4.6-8.2-6.3-12.8-3.9
			c-48.8,25.8-89.4,13.5-103.6-0.4c-2.3-2.2-5.6-6.1-5.7-10.3c23,2.4,51.9-0.9,78.8-14c4.6-2.3,6.6-8,4.3-12.7
			c-2.3-4.7-8-6.6-12.7-4.3c-43.8,21.4-89.2,10.9-96.3,3.5c-3.9-4.1-4.4-8.7-1.5-13.9c8.5-15.2,44.1-31.5,96.9-20.3
			c28.4,6,50.1,22,64.4,47.5c15.4,27.4,16.3,56.5,14,62.9c-1.7,5,0.9,10.4,5.8,12.1c1,0.3,2.1,0.5,3.1,0.5c3.9,0,7.5-2.4,8.9-6.3
			c2.9-8.2,2.9-25-1.8-43.9c5.7-4.7,10.6-7.8,17.7-11.8c6.3,5.7,14.1,9.6,22.3,10.7c0.4,0.1,0.9,0.1,1.3,0.1c4.7,0,8.7-3.5,9.4-8.2
			c0.7-5.2-2.9-10-8.1-10.7c-6.5-0.9-12.8-5.2-16.5-11.2c-4.2-6.9-4.8-15.6-1.6-25c2.3-6.6,1.2-12.6-0.2-17.2
			c31.4-1.8,44.4,9.9,49.5,17.4c6.1,9,5.7,18.8,2.6,24.5c-2.5,4.6-0.8,10.3,3.8,12.8s10.3,0.8,12.8-3.8c2.8-5.1,4.3-10.9,4.5-16.8
			c47-6.4,74.7,12.6,87.2,24.9C444.5,127.4,451,141.1,453,152.3z M474.9,230.1c-0.4,0.7-10.2,18.4-30.9,18.4
			c-19.2,0-39.7-13.9-39.7-39.7c0-25.1,20.4-38.6,39.7-38.6c4.5,0,9.1,1,13.4,3c0.7,0.4,1.5,0.8,2.3,1.1
			c11.4,6.2,20.5,19.1,20.5,36.7c0,5.8-1.4,11.4-3.8,16.9C475.8,228.5,475.3,229.3,474.9,230.1z"/>
		<path class="st2" d="M306,229.3c-22.6-4-50.1,5.7-59.9,14.4c-3.9,3.5-4.2,9.5-0.7,13.4c3.5,3.9,9.5,4.2,13.4,0.7
			c5-4.5,26.9-12.9,44-9.9c7.6,1.4,12.8,4.7,15.7,10.2c3.8,7.1,3.9,13.3,0.4,18.6c-6.2,9.4-22.2,14.7-39.9,13.3
			c-5.2-0.4-9.8,3.5-10.2,8.7s3.5,9.8,8.7,10.2c2.5,0.2,5,0.3,7.5,0.3c21.9,0,40.6-8.1,49.7-22c7.3-11.2,7.5-24.6,0.5-37.8
			C329.6,238.7,319.5,231.8,306,229.3z"/>
		<path class="st2" d="M358,120.3c-0.7-3.6-4.1-6-7.7-5.4c-1.3,0.3-13,2.7-21.9,15.7c-2.1,3-1.3,7.1,1.7,9.2
			c1.1,0.8,2.4,1.2,3.7,1.2c2.1,0,4.2-1,5.5-2.9c5.8-8.4,13.2-10.1,13.3-10.1C356.2,127.3,358.6,123.9,358,120.3z"/>
		<circle class="st2" cx="360" cy="166.3" r="19"/>
		<ellipse class="st2" cx="460.6" cy="209.9" rx="10.7" ry="15.3"/>
		<ellipse class="st2" cx="431.5" cy="209.9" rx="10.7" ry="15.3"/>
		<path class="st2" d="M343.7,214.7c-3.8,13.1-0.8,27.1,8.6,38.7c9.8,12.2,24.8,19.4,39.6,19.4c1.9,0,3.8-0.2,5.7-0.4
			c4.1-0.6,7-4.4,6.5-8.5c-0.6-4.1-4.3-7-8.5-6.5c-11.4,1.5-23.8-3.8-31.6-13.5c-6.4-7.9-8.4-17.4-5.5-25.9c1.3,1.7,3.3,2.6,5.3,2.6
			c1.3,0,2.7-0.4,3.8-1.2c3-2.1,3.8-6.2,1.7-9.2c-4.1-5.8-16.8-14.6-35.6-5.8c-3.3,1.6-4.8,5.5-3.2,8.8c1.5,3.3,5.5,4.8,8.8,3.2
			C340.9,215.6,342.3,215.1,343.7,214.7z"/>
		<path class="st2" d="M62.5,379.3c0.9,0,1.7-0.2,2.5-0.5l50.2-20.1c3.4-1.4,5.1-5.2,3.7-8.6c-1.4-3.4-5.2-5.1-8.6-3.7l-50.2,20.1
			c-3.4,1.4-5.1,5.2-3.7,8.6C57.5,377.7,60,379.2,62.5,379.3z"/>
		<path class="st2" d="M315,378.3c-3.4,1.4-5,5.2-3.6,8.6c1,2.5,3.5,4.1,6.1,4.1c0.8,0,1.7-0.2,2.5-0.5l54-22c3.4-1.3,5-5.2,3.6-8.6
			s-5.2-5-8.6-3.6L315,378.3z"/>
		<path class="st2" d="M35.1,258.9c-3.4,1.4-5,5.2-3.6,8.6c1,2.5,3.5,4.1,6.1,4.1c0.8,0,1.7-0.2,2.5-0.5l40.8-16.7
			c3.4-1.3,5-5.2,3.6-8.6c-1.4-3.4-5.2-5-8.6-3.6L35.1,258.9z"/>
		<path class="st2" d="M57,150.9L24.2,165c-3.4,1.4-4.9,5.3-3.5,8.7c1.1,2.5,3.5,4,6.1,4c0.9,0,1.7-0.1,2.6-0.5l32.8-14.1
			c3.4-1.4,4.9-5.3,3.5-8.7S60.4,149.5,57,150.9z"/>
	</g>
</g>
<g>
	<g>
		<circle class="st0" cx="363.8" cy="165.2" r="8.1"/>
	</g>
</g>
</svg>
