<?xml version="1.0" encoding="utf-8"?>
<!-- Generator: Adobe Illustrator 21.1.0, SVG Export Plug-In . SVG Version: 6.00 Build 0)  -->
<svg version="1.1" id="Layer_2_1_" xmlns="http://www.w3.org/2000/svg" xmlns:xlink="http://www.w3.org/1999/xlink" x="0px" y="0px"
	 viewBox="0 0 518 404" style="enable-background:new 0 0 518 404;" xml:space="preserve">
<style type="text/css">
	.st0{fill:#FFFFFF;}
	.st1{fill:#F9A0C4;}
	.st2{fill:#422744;}
</style>
<g>
	<g>
		<g>
			<path class="st0" d="M89.5,257.4c0,0-32.1,3.6-49.9-16c-17.8-19.6-14.3-49.9,3.6-64.2c17.8-14.3,69.5-26.7,76.7-26.7
				c7.1,0,130.2-39.2,153.4-53.5c23.2-14.3,89.2-55.3,124.8-53.5c35.7,1.8,85.6,12.5,74.9,35.7c-10.7,23.2-26.7,28.5-26.7,28.5
				s3.6,12.5-3.6,21.4c-7.1,8.9-45.3,20.5-45.3,20.5s-4.7,22.3-20.7,29.4c-16,7.1-90.9,14.3-96.3,14.3
				C275,193.2,89.5,257.4,89.5,257.4z"/>
		</g>
		<g>
			<g>
				<g>
					<path class="st1" d="M67.2,268.3c0,0-6.1-8.2,7.9-9.4c14.1-1.2,42.2-17.9,44.8-31c2.6-13.2,3.5-20.2-2.6-37.8
						c-6.1-17.6-30.7-29.9-38.7-29.9c-7.9,0-27.2,6.2-23.7-8.8c3.5-14.9,26.4-46.6,24.6-55.3c-1.8-8.8,4.4-31.6,14.1-38.7
						c9.7-7,44.8-16.7,47.4-14.1c2.6,2.6,5.5,9.7,4.5,15c-1,5.3,0.8,19.3,13.9,19.3c13.2,0,23.7,10.5,24.6-1.8
						c0.9-12.3,19.3-19.3,36-22.8c16.7-3.5,35.1-8.8,36.9-0.9c1.8,7.9-0.9,21.1,0.9,28.1c1.8,7-9.7,29.9,1.8,34.3l16.7,8.8
						c0,0,7.9,5.3,5.3,14.9c-2.6,9.7-7.7,32.9-7,36c0.7,3.2,9.7,18.4,30.7,14.9c28.7-4.8,42.2-3.5,47.4,12.3c5.3,15.8,6.1,31,7,42.8
						c0.9,11.7,16.7,15.2,27.2,25.8c10.5,10.5,25.5,17.6,17.6,32.5c-7.9,14.9-16.1,23.7-27.2,25.5c-11.1,1.8-0.9,5.3-8.8,21.1
						c-7.9,15.8-22,14.9-37.8,14.1c-15.8-0.9-35.1-18.4-53.6-14.1c-18.4,4.4-28.1,5.3-48.3,3.5c-20.2-1.8-41.3-5.3-58-12.3
						c-16.7-7-7-11.4-29-2.6c-22,8.8-47,3.7-59.7-3.5c-28.1-15.8-8.8-36.9-9.7-52.7C71.6,265.6,67.2,268.3,67.2,268.3z"/>
				</g>
			</g>
			<g>
				<g>
					<path class="st0" d="M73.3,156.4c0,0,17.6-70.9,104.2-59.2l16.4,5.3c0,0-2.9-41,53.3-38.7l11.1-14.1c0,0-19.9-1.8-24.6-1.2
						c-4.7,0.6-22.3,2.9-26.9,6.4c-4.7,3.5-22.3,24-22.3,24S172.3,82.6,170,82c-2.3-0.6-35.1-0.6-38.7,0.6c-3.5,1.2-14.1,4.7-19.3,7
						c-5.3,2.3-15.8,5.3-15.8,5.3S95.6,62.1,140.7,51c0,0-0.6-4.7-10-2.3c-9.4,2.3-31.6,5.9-39.2,18.7c-7.6,12.9-9.4,17.6-8.2,25.8
						c1.2,8.2-3.5,14.1-8.8,25.2c-5.3,11.1-15.2,27.5-15.2,29.3C59.3,149.4,58.7,167.5,73.3,156.4z"/>
				</g>
			</g>
			<g>
				<g>
					<path class="st0" d="M120.8,294.6l-39.2-32.2c0,0-15.8,0-12.3,5.9C72.7,274.1,114.3,295.8,120.8,294.6z"/>
				</g>
			</g>
			<g>
				<g>
					<path class="st0" d="M80.4,289.9c0,0-8.8,44.5,68.5,36.9c0,0-5.9,12.9-14.6,13.5c-8.8,0.6-33.4,1.8-39.8-1.2
						c-6.4-2.9-25.8-12.3-25.8-17.6C68.6,316.3,59.9,283.5,80.4,289.9z"/>
				</g>
			</g>
			<g>
				<g>
					<path class="st0" d="M263.1,258.9c0,0-43.9-16.1-53.9,5c-10,21.1,29.3,30.7,29.3,30.7s-22.3,2.3-27.5,0.6
						c-5.3-1.8-26.9-8.8-24-24.6c2.9-15.8,8.8-25.2,19.9-29.9c11.1-4.7,38.1-2.9,43.3,1.8C255.5,247.2,263.1,258.9,263.1,258.9z"/>
				</g>
			</g>
		</g>
	</g>
	<g>
		<circle class="st1" cx="76.2" cy="210.2" r="40.2"/>
		<path class="st2" d="M387.7,218.8c0.1-0.3,0.2-0.6,0.3-0.8c0.2-0.5,2.9-4.9,2.9-4.8c1,1.8,1.6,3.9,1.5,6.3c-0.1,1.9-0.7,3-2,3.6
			c-1.1,0.5-2.3,0.3-2.8-0.2C386.6,221.9,387.1,220.1,387.7,218.8z M358.4,344.8c-4.7,5.9-21,12.2-51,0.9
			c8.7-5.7,14.7-11.7,18.5-16.1c7.2,2.8,19.3,6.7,33.3,8.3c0.3,0,0.6,0.1,0.9,0.1C360.7,340.2,360.1,342.6,358.4,344.8z
			 M369.1,221.2c-0.5-3.9-1.2-7.4-2-10.7c2.2-2.8,9.8-3.6,12.1-3.8c-1.8,2.5-4.2,4.5-5.4,7.4c-1.4,3.5-1.5,7.5-0.2,11.1
			c2.2,6.5,8.7,11.3,15.6,11.3c2.2,0,4.4-0.4,6.5-1.3c6.1-2.6,9.9-8.3,10.1-15.4c0.1-2.4-0.2-4.7-0.7-6.9c1.2,0.9,2.4,1.9,3.3,3.1
			c1.7,2.2,3.3,5.8,1.2,10.2c-1.6,3.3-0.1,7.3,3.2,8.8c3.3,1.6,7.3,0.1,8.8-3.2c3.7-7.9,2.8-16.6-2.6-23.8
			c-5.9-7.9-16-12.1-25.1-10.7c-2.4-1.5-6.8-2.6-9.8-3.3c-6.7-1.6-16.2-0.4-21.4,2.9c-0.6-1.4-1.2-2.7-1.9-3.9
			c18.7-5.1,32.5-15,38.1-24.6c1.2-2,1.9-4,2.3-5.8c17.6-2.9,32.4-9.9,42.1-19.5c8.5-8.3,12.4-18.1,11.2-27.4
			c9.3-2.7,16.5-6.5,20.7-10.9c9.7-10.2,11.4-23.7,4.4-36.2c-13.1-23.4-55.3-41-111.7-30.7c-24.5-22.6-52.4-24.6-73.7-9.9
			c-15.1,10.5-23.5,27.5-28.2,43.3c-0.3-1-0.6-2-0.9-3c-0.8-2.3,0.2-5.1,1.6-8.7c1.5-3.9,3.6-9.3,0.4-14.6c-1.4-2.3-4.2-5.2-9.8-5.8
			c-46.9-5.5-67.1,13.2-74.9,24.9c-1.9,2.8-3.4,5.7-4.6,8.7c-7.1-1-13.9-1.5-20.3-1.6c0.5-5.8-0.7-11.7-3.1-16.6
			c0.1-0.6,0.3-1.7,0.5-2.4c0.8-3.2,2.4-9.1-1.8-14.3c-4.3-5.2-11.2-5.5-17.5-5.1c-28.9,2.1-52.2,17.8-62.5,41.8
			c-5,11.8-6,23.6-3.1,32.4c-15,16.5-23.6,36.6-23.3,54.2c-15.1,9.9-26.5,27.6-26.5,50.9c0,27.3,20,50.7,45,69.4
			c-13,17-10.5,34.3-2.8,45.7c14.3,21.3,50.9,33.2,88.6,17.6c32.7,13.1,62.4,19.6,88.9,19.6c16.5,0,31.7-2.5,45.7-7.6
			c20.8,10.2,38.2,14.3,52.2,14.3c17.1,0,29-6.1,35.6-14.4c4.6-5.8,6.7-12.6,6.1-19.2c18-3.4,28.9-14.5,33.5-25.7
			c7.3-17.7,1.3-38.2-14.9-50.9c-12.2-9.6-22.5-17.1-28.1-21.2c0.3-5,0.3-9.7-0.1-14L369.1,221.2z M135.5,51.7
			c-0.4,3.1-0.4,6.9,1.6,10.8c1.5,3,1.9,7.2,0.7,9.8c-21.8,2.9-38.4,10.9-50.3,19.1c0.4-2.8,1.3-6,2.8-9.4
			C93.7,73.8,105.2,54.4,135.5,51.7z M87,116.3C99.5,104,127.2,85,174.2,91.4c0.2,5.9,1.7,11.7,4.5,16.8c2.5,4.6,8.2,6.3,12.8,3.8
			c4.6-2.5,6.3-8.2,3.8-12.8c-3.1-5.7-3.5-15.5,2.6-24.5c5.1-7.5,18.1-19.2,49.5-17.4c-1.4,4.6-2.5,10.6-0.2,17.2
			c3.2,9.4,2.6,18.1-1.6,25c-3.7,6-10,10.3-16.5,11.2c-5.2,0.7-8.8,5.5-8.1,10.7c0.7,4.7,4.7,8.2,9.4,8.2c0.4,0,0.9,0,1.3-0.1
			c8.2-1.1,16-5,22.3-10.7c7.1,4,12,7.1,17.7,11.8c-4.7,18.9-4.7,35.7-1.8,43.9c1.4,3.9,5,6.3,8.9,6.3c1,0,2.1-0.2,3.1-0.5
			c4.9-1.7,7.5-7.1,5.8-12.1c-2.3-6.4-1.4-35.5,14-62.9c14.3-25.5,36-41.5,64.4-47.5c52.8-11.2,88.4,5.1,96.9,20.3
			c2.9,5.2,2.4,9.8-1.5,13.9c-7.1,7.4-52.5,17.9-96.3-3.5c-4.7-2.3-10.4-0.4-12.7,4.3c-2.3,4.7-0.3,10.4,4.3,12.7
			c26.9,13.1,55.8,16.4,78.8,14c-0.1,4.2-3.4,8.1-5.7,10.3c-14.2,13.9-54.8,26.2-103.6,0.4c-4.6-2.4-10.3-0.7-12.8,3.9
			c-2.4,4.6-0.7,10.3,3.9,12.8c20.9,11,41.5,16.3,60.3,17.1c-10.2,8.1-35.8,19.3-69.1,10.7c-5.1-1.3-10.2,1.7-11.5,6.8
			c-1.3,5.1,1.7,10.2,6.8,11.5c10.1,2.6,19.9,3.8,29.1,3.8c2.6,0,5.2-0.1,7.7-0.3c1.6,2.2,13,18.9,9.6,46.7l-0.7,5.7l4.7,3.2
			c0.1,0.1,14.1,9.8,31.7,23.7c9.5,7.5,13.2,19.1,9.1,28.9c-4.6,11.1-17.2,16.5-33.8,14.6c-19.1-2.2-34.2-9.5-34.3-9.6l-7.8-3.8
			l-4.5,7.4c-0.1,0.2-9.8,15.7-33.8,25c-32.5,12.6-76.3,8.3-126.6-12.5l-3.8-1.6l-3.8,1.7c-28.6,13.2-58.6,5.9-68.8-9.2
			c-6.1-9.1-2.7-17.8,2.7-24.4c9.6,6.1,19.4,11.5,28.9,16.2c1.4,0.7,2.8,1,4.2,1c3.5,0,6.8-1.9,8.5-5.2c2.3-4.7,0.4-10.4-4.2-12.7
			c-11.4-5.7-25.7-13.6-39-23.2c27.6-1.9,54.8-23.4,54.8-58.5c0-36-29.8-57.5-58.7-57.5c-3,0-6,0.3-9,0.9
			C68.1,142.1,74.6,128.4,87,116.3z M42.7,228.9c-2.4-5.5-3.8-11.1-3.8-16.9c0-17.6,9.1-30.5,20.5-36.7c0.8-0.3,1.6-0.7,2.3-1.1
			c4.3-2,8.9-3,13.4-3c19.3,0,39.7,13.5,39.7,38.6c0,25.8-20.5,39.7-39.7,39.7c-20.7,0-30.5-17.7-30.9-18.4
			C43.8,230.3,43.3,229.5,42.7,228.9z"/>
		<path class="st2" d="M183.9,250.4c-7,13.2-6.8,26.6,0.5,37.8c9.1,13.9,27.8,22,49.7,22c2.5,0,5-0.1,7.5-0.3
			c5.2-0.4,9.1-5,8.7-10.2c-0.4-5.2-5-9.1-10.2-8.7c-17.7,1.4-33.7-3.9-39.9-13.3c-3.5-5.3-3.4-11.5,0.4-18.6
			c2.9-5.5,8.1-8.8,15.7-10.2c17.1-3,39,5.4,44,9.9c3.9,3.5,9.9,3.2,13.4-0.7c3.5-3.9,3.2-9.9-0.7-13.4
			c-9.8-8.7-37.3-18.4-59.9-14.4C199.6,232.8,189.5,239.7,183.9,250.4z"/>
		<path class="st2" d="M166.5,129c0.1,0,7.5,1.7,13.3,10.1c1.3,1.9,3.4,2.9,5.5,2.9c1.3,0,2.6-0.4,3.7-1.2c3-2.1,3.8-6.2,1.7-9.2
			c-8.9-13-20.6-15.4-21.9-15.7c-3.6-0.6-7,1.8-7.7,5.4C160.5,124.9,162.9,128.3,166.5,129z"/>
		<circle class="st2" cx="159.1" cy="167.3" r="19"/>
		<ellipse class="st2" cx="58.5" cy="210.9" rx="10.7" ry="15.3"/>
		<ellipse class="st2" cx="87.6" cy="210.9" rx="10.7" ry="15.3"/>
		<path class="st2" d="M179.8,217.4c3.3,1.6,7.3,0.1,8.8-3.2c1.6-3.3,0.1-7.2-3.2-8.8c-18.8-8.8-31.5,0-35.6,5.8
			c-2.1,3-1.3,7.1,1.7,9.2c1.1,0.8,2.5,1.2,3.8,1.2c2,0,4-0.9,5.3-2.6c2.9,8.5,0.9,18-5.5,25.9c-7.8,9.7-20.2,15-31.6,13.5
			c-4.2-0.5-7.9,2.4-8.5,6.5c-0.5,4.1,2.4,7.9,6.5,8.5c1.9,0.2,3.8,0.4,5.7,0.4c14.8,0,29.8-7.2,39.6-19.4
			c9.4-11.6,12.4-25.6,8.6-38.7C176.8,216.1,178.2,216.6,179.8,217.4z"/>
		<path class="st2" d="M462.7,376.1c1.4-3.4-0.3-7.2-3.7-8.6l-50.2-20.1c-3.4-1.4-7.2,0.3-8.6,3.7c-1.4,3.4,0.3,7.2,3.7,8.6
			l50.2,20.1c0.8,0.3,1.6,0.5,2.5,0.5C459.1,380.2,461.6,378.7,462.7,376.1z"/>
		<path class="st2" d="M150.1,357.3c-3.4-1.4-7.2,0.2-8.6,3.6c-1.4,3.4,0.2,7.3,3.6,8.6l54,22c0.8,0.3,1.7,0.5,2.5,0.5
			c2.6,0,5.1-1.6,6.1-4.1c1.4-3.4-0.2-7.2-3.6-8.6L150.1,357.3z"/>
		<path class="st2" d="M443.2,243.2c-3.4-1.4-7.2,0.2-8.6,3.6c-1.4,3.4,0.2,7.3,3.6,8.6l40.8,16.7c0.8,0.3,1.7,0.5,2.5,0.5
			c2.6,0,5.1-1.6,6.1-4.1c1.4-3.4-0.2-7.2-3.6-8.6L443.2,243.2z"/>
		<path class="st2" d="M453.4,155.4c-1.4,3.4,0.1,7.3,3.5,8.7l32.8,14.1c0.9,0.4,1.7,0.5,2.6,0.5c2.6,0,5-1.5,6.1-4
			c1.4-3.4-0.1-7.3-3.5-8.7l-32.8-14.1C458.7,150.5,454.8,152,453.4,155.4z"/>
	</g>
</g>
<g>
	<g>
		<circle class="st0" cx="155.3" cy="166.2" r="8.1"/>
	</g>
</g>
</svg>
